<?xml version="1.0" encoding="UTF-8"?>
<svg width="16px" height="16px" viewBox="0 0 16 16" version="1.1" xmlns="http://www.w3.org/2000/svg" xmlns:xlink="http://www.w3.org/1999/xlink">
    <!-- Generator: Sketch 63.1 (92452) - https://sketch.com -->
    <title>icon search TELUS Purple</title>
    <desc>Created with Sketch.</desc>
    <g id="Page-1" stroke="none" stroke-width="1" fill="none" fill-rule="evenodd" fill-opacity="0.5" stroke-linecap="round" stroke-linejoin="round" stroke-opacity="0.5">
        <g id="Rule-8" transform="translate(-988.000000, -173.000000)" fill="#6D6E74" fill-rule="nonzero" stroke="#6D6E74" stroke-width="0.75">
            <g id="Group-2" transform="translate(833.000000, 169.000000)">
                <g id="icon-search-TELUS-Purple" transform="translate(156.000000, 5.000000)">
                    <path d="M0.466666669,4.9 C0.466666669,7.3444 2.4556,9.33333331 4.9,9.33333331 C7.3444,9.33333331 9.33333331,7.3444 9.33333331,4.9 C9.33333331,2.4556 7.3444,0.466666669 4.9,0.466666669 C2.4556,0.466666669 0.466666669,2.4556 0.466666669,4.9 Z M8.52432224,8.19438893 L13.9314,13.6014667 C14.0228667,13.6929333 14.0228667,13.8404 13.9314,13.9318667 C13.8861333,13.9771333 13.8264,14 13.7666667,14 C13.7069333,14 13.6472,13.9771333 13.6014667,13.9318667 L8.19438193,8.52432868 C7.32362001,9.31652393 6.16724038,9.8 4.9,9.8 C2.198,9.8 0,7.602 0,4.9 C0,2.198 2.198,0 4.9,0 C7.602,0 9.8,2.198 9.8,4.9 C9.8,6.16724374 9.31652134,7.32362617 8.52432224,8.19438893 Z" id="Path"></path>
                </g>
            </g>
        </g>
    </g>
</svg>